<svg width="18" height="19" viewBox="0 0 18 19" fill="none" xmlns="http://www.w3.org/2000/svg">
<path d="M1 13.5L5.586 8.914C5.96106 8.53906 6.46967 8.32843 7 8.32843C7.53033 8.32843 8.03894 8.53906 8.414 8.914L13 13.5M11 11.5L12.586 9.914C12.9611 9.53906 13.4697 9.32843 14 9.32843C14.5303 9.32843 15.0389 9.53906 15.414 9.914L17 11.5M11 5.5H11.01M3 17.5H15C15.5304 17.5 16.0391 17.2893 16.4142 16.9142C16.7893 16.5391 17 16.0304 17 15.5V3.5C17 2.96957 16.7893 2.46086 16.4142 2.08579C16.0391 1.71071 15.5304 1.5 15 1.5H3C2.46957 1.5 1.96086 1.71071 1.58579 2.08579C1.21071 2.46086 1 2.96957 1 3.5V15.5C1 16.0304 1.21071 16.5391 1.58579 16.9142C1.96086 17.2893 2.46957 17.5 3 17.5Z" stroke="#203758" stroke-width="2" stroke-linecap="round" stroke-linejoin="round"/>
</svg>
